<?xml version="1.0" encoding="UTF-8"?>
<svg id="SVGDoc" width="32" height="33" xmlns="http://www.w3.org/2000/svg" version="1.1" xmlns:xlink="http://www.w3.org/1999/xlink" xmlns:avocode="https://avocode.com/" viewBox="0 0 32 33"><defs><linearGradient id="LinearGradient1015" gradientUnits="userSpaceOnUse" x1="31.979337215423584" y1="16.03706230223179" x2="-0.020662784576416016" y2="16.981844559311867"><stop stop-opacity="1" stop-color="#ff7d56" offset="0"></stop><stop stop-opacity="1" stop-color="#ff498e" offset="1"></stop></linearGradient></defs><desc>Generated with Avocode.</desc><g><g opacity="0.44"><title>Forma 1</title><path d="M29.81281,8.53832l-25.66017,-8.41174c-0.75314,-0.22629 -1.55582,0.03057 -2.17381,0.17578c-2.47227,0.58185 -2.00375,2.43573 -1.8877,2.90593l6.88225,27.91784c0.09796,0.39743 0.56282,2.32873 3.03474,1.74754c0.6181,-0.14588 1.45214,-0.27547 2.01702,-0.81147l18.92555,-18.90797c1.56853,-1.48968 0.9446,-2.66402 0.9446,-2.66402v0c0,0 0.00824,-1.32453 -2.08248,-1.95191z" fill="#000000" fill-opacity="1"></path><path d="M29.81281,8.53832l-25.66017,-8.41174c-0.75314,-0.22629 -1.55582,0.03057 -2.17381,0.17578c-2.47227,0.58185 -2.00375,2.43573 -1.8877,2.90593l6.88225,27.91784c0.09796,0.39743 0.56282,2.32873 3.03474,1.74754c0.6181,-0.14588 1.45214,-0.27547 2.01702,-0.81147l18.92555,-18.90797c1.56853,-1.48968 0.9446,-2.66402 0.9446,-2.66402v0c0,0 0.00824,-1.32453 -2.08248,-1.95191z" fill="url(#LinearGradient1015)"></path></g></g></svg>